<?xml version="1.0" standalone="no"?>
<!DOCTYPE svg PUBLIC "-//W3C//DTD SVG 20010904//EN"
 "http://www.w3.org/TR/2001/REC-SVG-20010904/DTD/svg10.dtd">
<svg version="1.0" xmlns="http://www.w3.org/2000/svg"
 width="1024.000000pt" height="1024.000000pt" viewBox="0 0 1024.000000 1024.000000"
 preserveAspectRatio="xMidYMid meet">

<g transform="translate(0.000000,1024.000000) scale(0.100000,-0.100000)"
fill="#000000" stroke="none">
<path d="M0 5120 l0 -5120 5120 0 5120 0 0 5120 0 5120 -5120 0 -5120 0 0
-5120z m5832 2893 c60 -27 137 -104 165 -164 35 -73 43 -150 43 -386 l0 -224
-77 3 -78 3 -5 260 c-5 251 -6 261 -28 298 -13 20 -43 48 -66 62 l-43 25 -622
0 c-686 0 -649 3 -719 -63 -59 -57 -62 -81 -62 -567 0 -407 -1 -438 -18 -453
-16 -14 -70 -17 -462 -19 l-445 -3 -45 -27 c-28 -16 -55 -43 -70 -70 -24 -42
-25 -49 -28 -280 l-3 -238 -75 0 -75 0 3 263 3 262 28 56 c32 66 99 132 165
162 45 21 61 22 459 25 l412 3 3 417 3 417 32 67 c55 117 148 186 267 197 34
3 338 4 676 1 606 -5 616 -5 662 -27z m1326 -200 l-3 -158 -150 0 -150 0 -3
158 -3 157 156 0 156 0 -3 -157z m-360 -451 l2 -192 -197 2 -198 3 -3 193 -2
192 197 -2 198 -3 3 -193z m512 -87 l0 -105 -107 0 -108 0 0 105 0 105 108 0
107 0 0 -105z m-2357 -87 c9 -11 19 -30 22 -42 3 -11 86 -408 185 -881 201
-957 205 -976 213 -955 11 29 155 516 217 735 34 121 68 231 75 245 26 50 58
66 122 62 36 -3 78 -56 159 -198 42 -74 86 -141 98 -149 17 -12 67 -15 269
-15 l248 0 24 -25 c30 -30 31 -54 4 -89 l-20 -26 -277 0 c-365 1 -340 -10
-457 199 l-59 104 -12 -37 c-7 -20 -47 -159 -89 -309 -164 -584 -242 -834
-266 -858 -21 -21 -69 -25 -99 -9 -23 12 -31 38 -69 215 -95 444 -341 1629
-341 1645 0 11 -3 20 -7 20 -8 0 -34 -91 -203 -730 -59 -223 -113 -425 -119
-449 -24 -85 -100 -120 -148 -68 -12 12 -78 136 -148 276 l-127 255 -47 -90
c-63 -121 -75 -137 -120 -162 -38 -22 -46 -22 -429 -22 -379 0 -390 1 -416 21
-33 26 -36 77 -5 105 20 18 45 19 400 24 232 3 382 9 388 15 5 6 42 73 82 150
94 183 111 205 153 205 19 0 40 -8 49 -18 9 -10 70 -130 136 -266 66 -137 123
-243 125 -235 3 8 21 82 41 164 21 83 91 344 157 580 66 237 127 455 134 485
25 94 44 137 67 148 29 15 68 6 90 -20z m1507 -328 l0 -190 -192 2 -193 3 -3
182 -2 183 192 3 c106 1 194 3 196 5 1 1 2 -84 2 -188z m618 -68 l2 -163 -152
3 -153 3 -3 150 c-1 82 0 155 2 162 4 10 39 13 153 11 l148 -3 3 -163z m-3807
-1260 c4 -121 6 -131 32 -170 15 -23 45 -54 67 -68 l40 -27 446 -3 c401 -2
448 -4 464 -19 18 -16 19 -43 22 -444 l3 -426 25 -50 c16 -32 41 -61 68 -80
l44 -30 616 -5 c340 -3 492 -6 339 -8 -198 -1 -276 -5 -271 -13 3 -6 17 -9 30
-6 13 2 24 0 24 -4 0 -5 -7 -9 -15 -9 -12 0 -13 -4 -6 -18 7 -13 6 -23 -2 -32
-10 -10 -9 -11 3 -5 13 8 13 7 1 -8 -7 -9 -20 -17 -29 -17 -8 0 -13 -2 -11 -5
3 -2 100 -8 215 -11 115 -4 211 -8 213 -10 11 -10 -1082 -3 -1127 7 -109 23
-211 115 -249 224 -16 44 -18 93 -18 430 l0 380 -410 5 -410 5 -55 26 c-70 33
-132 95 -167 167 -26 53 -28 67 -31 205 l-4 147 75 0 75 0 3 -128z m2392
-1469 c-13 -2 -33 -2 -45 0 -13 2 -3 4 22 4 25 0 35 -2 23 -4z m-432 -472 c76
-77 -13 -197 -109 -147 -42 22 -58 72 -38 119 27 65 97 78 147 28z m-2876 -22
l50 -24 5 -88 c3 -48 4 -87 2 -87 -1 0 -20 11 -40 25 -139 92 -305 82 -412
-25 -63 -63 -85 -119 -85 -215 0 -67 5 -88 27 -131 35 -66 106 -128 170 -150
100 -33 263 1 336 69 l23 21 -3 -84 c-3 -82 -4 -85 -34 -105 -63 -42 -136 -57
-257 -53 -101 3 -119 7 -179 35 -319 150 -326 623 -11 791 83 44 121 51 248
48 93 -2 118 -6 160 -27z m5745 -135 l0 -166 27 33 c35 41 96 69 154 69 97 0
168 -44 208 -129 25 -54 26 -62 29 -283 l4 -228 -76 0 -76 0 0 203 c0 172 -3
207 -18 237 -43 88 -173 89 -229 3 -16 -23 -18 -57 -21 -238 l-3 -210 -72 2
-72 1 -3 436 -2 436 75 0 75 0 0 -166z m-1630 1 l0 -85 80 0 80 0 0 -60 0 -60
-80 0 -80 0 0 -169 0 -170 28 -21 c23 -19 35 -21 80 -16 l52 6 0 -65 c0 -61
-2 -65 -25 -71 -14 -3 -61 -5 -104 -3 -89 5 -121 21 -156 80 -18 30 -20 56
-23 232 l-4 197 -44 0 -44 0 0 60 0 60 45 0 45 0 0 85 0 85 75 0 75 0 0 -85z
m-2800 -137 l0 -73 -69 0 c-75 0 -104 -14 -145 -69 -19 -25 -21 -44 -24 -227
l-4 -199 -69 0 -69 0 0 310 0 310 70 0 70 0 0 -42 1 -43 15 27 c24 45 95 76
177 77 l47 1 0 -72z m436 57 c63 -19 113 -60 146 -122 24 -44 48 -143 48 -200
l0 -23 -224 0 c-124 0 -227 -3 -229 -8 -11 -16 24 -89 56 -119 50 -45 122 -58
217 -39 40 9 88 24 106 35 l34 20 0 -65 0 -65 -42 -19 c-64 -28 -183 -41 -258
-29 -108 17 -177 63 -225 151 -28 50 -30 60 -30 163 0 91 4 118 21 156 39 83
107 143 194 170 42 12 134 10 186 -6z m1664 -9 c45 -23 87 -63 108 -101 14
-25 18 -72 22 -273 l5 -242 -67 0 -68 0 0 30 c0 17 -4 30 -10 30 -5 0 -10 -4
-10 -10 0 -5 -20 -21 -45 -36 -82 -47 -204 -44 -279 9 -61 43 -83 154 -47 232
42 91 97 115 262 115 l122 0 -6 41 c-16 121 -167 143 -349 51 -5 -2 -8 24 -8
57 0 58 1 61 33 77 61 32 120 43 212 41 63 -2 101 -9 125 -21z m1346 -4 c54
-27 108 -92 129 -151 9 -25 19 -79 22 -118 l6 -73 -228 0 -227 0 7 -27 c12
-51 45 -91 91 -114 75 -36 197 -21 305 38 4 2 5 -27 3 -64 l-3 -68 -46 -18
c-154 -58 -330 -31 -422 65 -57 59 -78 120 -78 228 0 88 3 101 33 162 38 77
88 123 166 150 69 25 184 20 242 -10z m687 6 l39 -14 1 -72 c1 -40 1 -72 1
-72 -1 0 -21 9 -45 20 -65 29 -169 27 -223 -4 -56 -33 -86 -88 -86 -159 0 -31
5 -68 11 -84 37 -98 168 -140 291 -93 29 11 54 20 56 20 1 0 2 -33 2 -74 l0
-74 -52 -12 c-166 -40 -331 11 -410 125 -78 115 -68 296 23 399 49 55 90 81
160 101 62 17 173 14 232 -7z m-5083 -203 c0 -227 5 -252 60 -280 41 -21 108
-19 148 5 55 34 62 65 62 285 l0 195 75 0 75 0 0 -310 0 -310 -75 0 -75 0 0
41 0 41 -25 -30 c-37 -45 -83 -62 -162 -62 -83 0 -140 24 -178 73 -47 63 -55
110 -55 344 l0 213 75 0 75 0 0 -205z m1852 -8 c65 -158 88 -207 94 -192 4 11
42 106 85 210 l77 190 81 3 81 3 -36 -78 c-28 -63 -237 -533 -238 -540 -1 -1
-28 -3 -61 -4 l-59 -3 -44 100 c-101 229 -222 512 -222 518 0 3 35 6 78 6 l77
0 87 -213z m668 -97 l0 -310 -70 0 -70 0 0 310 0 310 70 0 70 0 0 -310z m910
-135 c37 -19 50 -43 50 -93 0 -51 -43 -92 -97 -92 -96 0 -130 138 -45 184 35
19 56 20 92 1z"/>
<path d="M6448 7543 c18 -2 45 -2 60 0 15 2 0 4 -33 4 -33 0 -45 -2 -27 -4z"/>
<path d="M6548 7543 c7 -3 16 -2 19 1 4 3 -2 6 -13 5 -11 0 -14 -3 -6 -6z"/>
<path d="M6418 7342 c-4 -72 -5 -139 -2 -147 5 -13 33 -15 173 -13 144 2 154
3 76 8 -75 5 -95 13 -33 13 10 0 15 4 12 8 -3 5 -9 7 -14 4 -5 -3 -12 0 -15 6
-4 5 -13 8 -20 5 -8 -3 -19 3 -27 12 -9 11 -10 14 0 8 6 -4 12 -2 12 4 0 6
-19 20 -42 30 -24 11 -38 20 -33 20 6 0 3 5 -5 10 -9 6 -11 10 -3 10 7 0 10 7
7 15 -5 11 -11 12 -25 5 -15 -8 -17 -7 -13 5 4 9 0 15 -10 15 -16 0 -24 21
-28 80 -2 19 -6 -25 -10 -98z m115 -149 c-7 -2 -19 -2 -25 0 -7 3 -2 5 12 5
14 0 19 -2 13 -5z"/>
<path d="M6768 7183 c7 -3 16 -2 19 1 4 3 -2 6 -13 5 -11 0 -14 -3 -6 -6z"/>
<path d="M6080 6855 l0 -175 185 0 185 0 0 175 0 175 -185 0 -185 0 0 -175z
m337 155 c-16 -5 -38 -5 -50 0 -17 7 -10 9 28 9 43 -1 46 -2 22 -9z"/>
<path d="M6782 6740 c0 -14 2 -19 5 -12 2 6 2 18 0 25 -3 6 -5 1 -5 -13z"/>
<path d="M6781 6673 c-1 -21 3 -23 52 -21 l52 2 -47 3 c-33 3 -48 9 -51 21 -3
12 -5 11 -6 -5z"/>
<path d="M3962 3250 c-55 -13 -112 -79 -112 -130 0 -19 5 -20 151 -20 l152 0
-6 34 c-14 86 -96 138 -185 116z"/>
<path d="M5555 2996 c-41 -18 -57 -39 -58 -81 -2 -56 39 -90 106 -89 95 1 157
56 157 142 l0 42 -87 0 c-50 -1 -101 -7 -118 -14z"/>
<path d="M6893 3230 c-33 -20 -55 -54 -67 -102 l-6 -28 150 0 c144 0 150 1
150 20 0 39 -29 90 -62 110 -44 26 -122 27 -165 0z"/>
</g>
</svg>
